<?xml version="1.0" encoding="utf-8"?>
<!-- Generator: Adobe Illustrator 16.0.3, SVG Export Plug-In . SVG Version: 6.00 Build 0)  -->
<!DOCTYPE svg PUBLIC "-//W3C//DTD SVG 1.1//EN" "http://www.w3.org/Graphics/SVG/1.1/DTD/svg11.dtd">
<svg version="1.1" id="Layer_1" xmlns="http://www.w3.org/2000/svg" xmlns:xlink="http://www.w3.org/1999/xlink" x="0px" y="0px"
	 width="288.75px" height="288px" viewBox="0 0 288.75 288" enable-background="new 0 0 288.75 288" xml:space="preserve">
<rect fill="#F29400" width="288.75" height="288"/>
<defs>
	<filter id="Adobe_OpacityMaskFilter" filterUnits="userSpaceOnUse" x="38.033" y="35.976" width="190.732" height="190.14">
		<feColorMatrix  type="matrix" values="1 0 0 0 0  0 1 0 0 0  0 0 1 0 0  0 0 0 1 0"/>
	</filter>
</defs>
<mask maskUnits="userSpaceOnUse" x="38.033" y="35.976" width="190.732" height="190.14" id="_x40__1_">
	<g id="_x40_Deckkraftmaske_3_" filter="url(#Adobe_OpacityMaskFilter)">
		
			<image overflow="visible" enable-background="new    " width="388" height="384" id="_x40_Deckkraftmaske_2_" xlink:href="6B7B39EC.jpeg"  transform="matrix(0.7461 0 0 0.75 -10 -10)">
		</image>
	</g>
</mask>
<g id="_x40_" mask="url(#_x40__1_)">
	<g>
		<path fill="#FFFFFF" d="M207.704,181.621h21.062c-6.594,13.381-16.711,23.861-30.355,31.443
			c-15.622,8.701-34.674,13.052-57.15,13.052c-21.753,0-40.54-3.677-56.36-11.025c-15.82-7.351-27.587-18.192-35.299-32.53
			c-7.713-14.336-11.568-29.941-11.568-46.817c0-18.522,4.383-35.776,13.15-51.762c8.766-15.984,20.764-27.982,35.991-35.991
			c15.227-8.01,32.629-12.014,52.207-12.014c16.611,0,31.376,3.23,44.297,9.689c12.92,6.461,22.791,15.64,29.613,27.537
			c6.823,11.899,10.234,24.902,10.234,39.008c0,16.809-5.176,32.004-15.524,45.582c-12.985,17.14-29.63,25.708-49.933,25.708
			c-5.473,0-9.592-0.955-12.359-2.867c-2.77-1.91-4.615-4.712-5.537-8.404c-7.779,7.515-16.744,11.271-26.895,11.271
			c-10.943,0-20.022-3.771-27.241-11.32c-7.218-7.548-10.826-17.584-10.826-30.109c0-15.488,4.351-29.628,13.052-42.417
			c10.545-15.557,24.059-23.335,40.539-23.335c11.732,0,20.401,4.483,26.006,13.447l2.471-10.976h26.104l-14.931,70.895
			c-0.924,4.484-1.385,7.385-1.385,8.701c0,1.649,0.379,2.885,1.138,3.708c0.758,0.825,1.664,1.236,2.72,1.236
			c3.164,0,7.25-1.911,12.262-5.735c6.724-5.008,12.16-11.73,16.313-20.17c4.153-8.438,6.229-17.171,6.229-26.203
			c0-16.216-5.869-29.777-17.602-40.688c-11.732-10.909-28.115-16.364-49.143-16.364c-17.863,0-33.009,3.643-45.435,10.926
			C81.124,72.379,71.764,82.63,65.469,95.846c-6.295,13.217-9.442,26.978-9.442,41.281c0,13.909,3.51,26.564,10.53,37.969
			s16.874,19.727,29.564,24.967c12.688,5.24,27.206,7.86,43.557,7.86c15.754,0,29.299-2.192,40.637-6.575
			C191.65,196.963,200.782,190.389,207.704,181.621z M100.817,140.982c0,8.373,1.696,14.535,5.093,18.49
			c3.394,3.954,7.596,5.932,12.606,5.932c3.758,0,7.283-0.922,10.58-2.769c2.504-1.317,4.976-3.394,7.416-6.229
			c3.493-4.021,6.51-9.89,9.047-17.601c2.537-7.714,3.808-14.896,3.808-21.557c0-7.448-1.729-13.166-5.19-17.155
			c-3.461-3.987-7.828-5.981-13.102-5.981c-5.67,0-10.911,2.192-15.722,6.575c-4.813,4.385-8.438,10.629-10.876,18.737
			C102.036,127.535,100.817,134.723,100.817,140.982z"/>
	</g>
</g>
<g id="p">
	<g>
		<path fill="#FFFFFF" d="M107.605,79.467h19.922l-1.685,7.983c4.248-3.516,8.228-6.03,11.938-7.544
			c3.712-1.513,7.691-2.271,11.939-2.271c8.153,0,14.709,2.809,19.665,8.423c4.955,5.615,7.435,13.989,7.435,25.122
			c0,14.015-4.272,25.854-12.817,35.522c-7.324,8.252-15.991,12.378-26,12.378c-10.304,0-18.092-4.175-23.365-12.523l-8.423,40.355
			h-21.02L107.605,79.467z M120.276,124.071c0,6.055,1.477,10.755,4.432,14.099c2.953,3.346,6.433,5.018,10.437,5.018
			c3.467,0,6.813-1.256,10.035-3.771c3.223-2.515,5.896-6.689,8.021-12.525c2.124-5.834,3.187-11.242,3.187-16.223
			c0-5.811-1.392-10.266-4.175-13.367c-2.782-3.1-6.323-4.65-10.621-4.65c-4.004,0-7.653,1.428-10.949,4.284
			s-5.849,7.057-7.654,12.598C121.18,115.075,120.276,119.922,120.276,124.071z"/>
	</g>
</g>
<g>
	<path d="M144.725,271.49c-3.184,1.508-9.385,2.682-17.094,2.682c-28.825,0-42.567-23.799-42.567-55.807
		c0-42.568,23.63-59.159,45.584-59.159c7.709,0,13.072,1.509,15.25,3.017l-3.687,18.436c-2.514-1.174-5.362-2.18-10.223-2.18
		c-12.401,0-23.63,10.727-23.63,38.713c0,26.982,10.223,37.539,23.63,37.539c3.687,0,7.877-0.838,10.558-1.676L144.725,271.49z"/>
	<path d="M154.275,250.709c4.525,2.514,12.234,4.357,18.604,4.357c10.391,0,15.418-5.363,15.418-12.736
		c0-8.213-5.027-12.234-14.58-18.436c-15.418-9.385-21.285-21.283-21.285-31.506c0-18.1,12.066-33.183,35.697-33.183
		c7.373,0,14.412,2.011,17.764,4.022l-3.52,18.938c-3.184-2.012-8.043-3.855-14.412-3.855c-9.385,0-13.91,5.699-13.91,11.732
		c0,6.703,3.352,10.223,15.586,17.596c14.916,9.051,20.445,20.445,20.445,32.344c0,20.613-15.25,34.189-37.371,34.189
		c-9.051,0-17.932-2.348-21.619-4.525L154.275,250.709z"/>
	<path d="M220.305,250.709c4.525,2.514,12.234,4.357,18.602,4.357c10.391,0,15.418-5.363,15.418-12.736
		c0-8.213-5.027-12.234-14.58-18.436c-15.418-9.385-21.283-21.283-21.283-31.506c0-18.1,12.066-33.183,35.695-33.183
		c7.375,0,14.414,2.011,17.766,4.022l-3.52,18.938c-3.184-2.012-8.045-3.855-14.412-3.855c-9.385,0-13.91,5.699-13.91,11.732
		c0,6.703,3.352,10.223,15.586,17.596c14.914,9.051,20.445,20.445,20.445,32.344c0,20.613-15.25,34.189-37.373,34.189
		c-9.049,0-17.932-2.348-21.617-4.525L220.305,250.709z"/>
</g>
</svg>
